# xmcd
# 
# Track frame offsets:
#     150
#     15573
#     28963
#     46237
#     63797
#     76129
#     92339
#     107951
#     121754
#     133329
#     149235
#     166906
#     184801
#     201187
# 
# Disc length: 2923
# 
# Revision: 0
# Processed by: cddbd v1.5.2PL0 Copyright (c) Steve Scherf et al.
# Submitted via: fre:ac v1.0.17
# 
DISCID=bf0b690e
DTITLE=Various Artist - BLUES GUITAR TOP-LINERS
DYEAR=2006
DGENRE=Blues
TTITLE0=Grady Gaines feat. Roy Gaines and Clarence Hollimon - Full Gain
TTITLE1=James "Thunderbird" Davis feat. Clarence Hollimon - It's Your Turn To Cry
TTITLE2=Robert Ward - Blessings
TTITLE3=W.C. Clark - Leave My Heart Alone
TTITLE4=Hubert Sumlin - Can't Call You No More
TTITLE5=Dave Myers - You Can't Do That
TTITLE6=Snooks Eaglin - Ooh Lawdy My Baby
TTITLE7=Earl King - A Weary Silent Night
TTITLE8=Phillip Walker - Hello My Darling
TTITLE9=Lynn August feat. Selwyn Cooper - That Train Is Gone
TTITLE10=Guitar Shorty - Mean Husband Blues
TTITLE11=Bobby Parker - It's Hard But It's Fair
TTITLE12=Anson Funderburgh and Sam Myers - The Dew Is Falling
TTITLE13=Chris Thomas King - If It Ain't One Thang, It' Two
EXTD=blues and soul records no.70 spechial sampler CD
EXTT0=
EXTT1=
EXTT2=
EXTT3=
EXTT4=
EXTT5=
EXTT6=
EXTT7=
EXTT8=
EXTT9=
EXTT10=
EXTT11=
EXTT12=
EXTT13=
PLAYORDER=
